<svg xmlns="http://www.w3.org/2000/svg" viewBox="0 0 450 280" width="450" height="280">
  <defs>
    <linearGradient id="rdGrad" x1="0%" y1="0%" x2="100%" y2="0%">
      <stop offset="0%" style="stop-color:#3b82f6"/>
      <stop offset="100%" style="stop-color:#1e40af"/>
    </linearGradient>
    <linearGradient id="hwGrad" x1="0%" y1="0%" x2="100%" y2="0%">
      <stop offset="0%" style="stop-color:#22c55e"/>
      <stop offset="100%" style="stop-color:#16a34a"/>
    </linearGradient>
    <linearGradient id="mktGrad" x1="0%" y1="0%" x2="100%" y2="0%">
      <stop offset="0%" style="stop-color:#f97316"/>
      <stop offset="100%" style="stop-color:#ea580c"/>
    </linearGradient>
    <linearGradient id="opsGrad" x1="0%" y1="0%" x2="100%" y2="0%">
      <stop offset="0%" style="stop-color:#8b5cf6"/>
      <stop offset="100%" style="stop-color:#7c3aed"/>
    </linearGradient>
    <linearGradient id="certGrad" x1="0%" y1="0%" x2="100%" y2="0%">
      <stop offset="0%" style="stop-color:#ec4899"/>
      <stop offset="100%" style="stop-color:#db2777"/>
    </linearGradient>
  </defs>

  <!-- Background -->
  <rect x="0" y="0" width="450" height="280" fill="#0f172a" rx="8"/>

  <!-- Title -->
  <text x="225" y="28" font-family="Arial, sans-serif" font-size="18" font-weight="bold" fill="#fbbf24" text-anchor="middle">$860K Seed Round</text>
  <text x="225" y="48" font-family="Arial, sans-serif" font-size="11" fill="#94a3b8" text-anchor="middle">18-Month Runway to Series A</text>

  <!-- Allocation Bars (left side) -->
  <g transform="translate(25, 70)">
    <!-- R&D - 40% = $344K -->
    <rect x="0" y="0" width="160" height="28" rx="4" fill="url(#rdGrad)"/>
    <text x="8" y="18" font-family="Arial, sans-serif" font-size="10" font-weight="bold" fill="#fff">R&amp;D / Engineering</text>
    <text x="152" y="18" font-family="Arial, sans-serif" font-size="10" font-weight="bold" fill="#fff" text-anchor="end">40%</text>

    <!-- Hardware - 25% = $215K -->
    <rect x="0" y="34" width="100" height="28" rx="4" fill="url(#hwGrad)"/>
    <text x="8" y="52" font-family="Arial, sans-serif" font-size="10" font-weight="bold" fill="#fff">Hardware</text>
    <text x="92" y="52" font-family="Arial, sans-serif" font-size="10" font-weight="bold" fill="#fff" text-anchor="end">25%</text>

    <!-- Sales - 15% = $129K -->
    <rect x="0" y="68" width="60" height="28" rx="4" fill="url(#mktGrad)"/>
    <text x="8" y="86" font-family="Arial, sans-serif" font-size="9" font-weight="bold" fill="#fff">Sales</text>
    <text x="52" y="86" font-family="Arial, sans-serif" font-size="9" font-weight="bold" fill="#fff" text-anchor="end">15%</text>

    <!-- Ops - 10% = $86K -->
    <rect x="0" y="102" width="40" height="28" rx="4" fill="url(#opsGrad)"/>
    <text x="8" y="120" font-family="Arial, sans-serif" font-size="8" font-weight="bold" fill="#fff">Ops</text>
    <text x="34" y="120" font-family="Arial, sans-serif" font-size="8" font-weight="bold" fill="#fff" text-anchor="end">10%</text>

    <!-- Cert - 10% = $86K -->
    <rect x="0" y="136" width="40" height="28" rx="4" fill="url(#certGrad)"/>
    <text x="8" y="154" font-family="Arial, sans-serif" font-size="8" font-weight="bold" fill="#fff">Cert</text>
    <text x="34" y="154" font-family="Arial, sans-serif" font-size="8" font-weight="bold" fill="#fff" text-anchor="end">10%</text>
  </g>

  <!-- Right side: Details with amounts -->
  <g transform="translate(200, 70)">
    <circle cx="8" cy="10" r="5" fill="#3b82f6"/>
    <text x="20" y="8" font-family="Arial, sans-serif" font-size="9" fill="#f8fafc">AI/ML, Edge processing</text>
    <text x="20" y="18" font-family="Arial, sans-serif" font-size="9" fill="#64748b">$344K</text>

    <circle cx="8" cy="44" r="5" fill="#22c55e"/>
    <text x="20" y="42" font-family="Arial, sans-serif" font-size="9" fill="#f8fafc">Prototypes, tooling, BOM</text>
    <text x="20" y="52" font-family="Arial, sans-serif" font-size="9" fill="#64748b">$215K</text>

    <circle cx="8" cy="78" r="5" fill="#f97316"/>
    <text x="20" y="76" font-family="Arial, sans-serif" font-size="9" fill="#f8fafc">D2C launch, trade shows</text>
    <text x="20" y="86" font-family="Arial, sans-serif" font-size="9" fill="#64748b">$129K</text>

    <circle cx="8" cy="112" r="5" fill="#8b5cf6"/>
    <text x="20" y="110" font-family="Arial, sans-serif" font-size="9" fill="#f8fafc">Legal, IP, infra</text>
    <text x="20" y="120" font-family="Arial, sans-serif" font-size="9" fill="#64748b">$86K</text>

    <circle cx="8" cy="146" r="5" fill="#ec4899"/>
    <text x="20" y="144" font-family="Arial, sans-serif" font-size="9" fill="#f8fafc">CPSC, ASTM, CE</text>
    <text x="20" y="154" font-family="Arial, sans-serif" font-size="9" fill="#64748b">$86K</text>
  </g>

  <!-- Timeline at bottom -->
  <g transform="translate(25, 240)">
    <rect x="0" y="0" width="400" height="32" rx="6" fill="#1e293b" stroke="#3b82f6" stroke-width="1"/>

    <!-- Progress line -->
    <line x1="20" y1="16" x2="380" y2="16" stroke="#334155" stroke-width="2"/>
    <line x1="20" y1="16" x2="60" y2="16" stroke="#22c55e" stroke-width="3"/>

    <!-- Markers -->
    <circle cx="20" cy="16" r="6" fill="#22c55e"/>
    <text x="20" y="7" font-family="Arial, sans-serif" font-size="7" fill="#22c55e" text-anchor="middle" font-weight="bold">NOW</text>

    <circle cx="140" cy="16" r="4" fill="#3b82f6"/>
    <text x="140" y="28" font-family="Arial, sans-serif" font-size="7" fill="#94a3b8" text-anchor="middle">Q2 2026</text>

    <circle cx="260" cy="16" r="4" fill="#3b82f6"/>
    <text x="260" y="28" font-family="Arial, sans-serif" font-size="7" fill="#94a3b8" text-anchor="middle">Q4 2026</text>

    <circle cx="380" cy="16" r="6" fill="#fbbf24"/>
    <text x="380" y="7" font-family="Arial, sans-serif" font-size="7" fill="#fbbf24" text-anchor="middle" font-weight="bold">SERIES A</text>
  </g>
</svg>
