<svg viewBox="0 0 400 400" xmlns="http://www.w3.org/2000/svg" role="img" aria-labelledby="phoenix-title phoenix-desc">
  <title id="phoenix-title">Phoenix Rooivalk</title>
  <desc id="phoenix-desc">Hybrid tactical phoenix logo combining organic fire aesthetics with precision engineering elements</desc>
  
  <style>
    @media (prefers-reduced-motion: reduce) {
      .animated { animation: none !important; }
      * { animation-play-state: paused !important; }
    }
  </style>
  
  <defs>
    <!-- Hybrid plasma-tactical gradients -->
    <radialGradient id="hybridCore" cx="50%" cy="30%">
      <stop offset="0%" style="stop-color:#ffffff;stop-opacity:1"/>
      <stop offset="5%" style="stop-color:#ffffee;stop-opacity:1"/>
      <stop offset="12%" style="stop-color:#ffffaa;stop-opacity:1"/>
      <stop offset="20%" style="stop-color:#ffff66;stop-opacity:1"/>
      <stop offset="28%" style="stop-color:#ffd700;stop-opacity:1"/>
      <stop offset="38%" style="stop-color:#ffa500;stop-opacity:1"/>
      <stop offset="50%" style="stop-color:#f97316;stop-opacity:1"/>
      <stop offset="65%" style="stop-color:#ff2200;stop-opacity:1"/>
      <stop offset="80%" style="stop-color:#cc0000;stop-opacity:1"/>
      <stop offset="100%" style="stop-color:#8b0000;stop-opacity:1"/>
    </radialGradient>
    
    <!-- Flowing tactical wing gradients -->
    <linearGradient id="tacticalFlowLeft" x1="0%" y1="100%" x2="100%" y2="0%">
      <stop offset="0%" style="stop-color:#2a0000;stop-opacity:1"/>
      <stop offset="15%" style="stop-color:#550000;stop-opacity:1"/>
      <stop offset="30%" style="stop-color:#8b0000;stop-opacity:1"/>
      <stop offset="45%" style="stop-color:#cc0000;stop-opacity:0.95"/>
      <stop offset="60%" style="stop-color:#ff2200;stop-opacity:0.9"/>
      <stop offset="75%" style="stop-color:#f97316;stop-opacity:0.8"/>
      <stop offset="88%" style="stop-color:#ffa500;stop-opacity:0.7"/>
      <stop offset="96%" style="stop-color:#ffd700;stop-opacity:0.6"/>
      <stop offset="100%" style="stop-color:#ffffaa;stop-opacity:0.4"/>
    </linearGradient>
    
    <linearGradient id="tacticalFlowRight" x1="100%" y1="100%" x2="0%" y2="0%">
      <stop offset="0%" style="stop-color:#2a0000;stop-opacity:1"/>
      <stop offset="15%" style="stop-color:#550000;stop-opacity:1"/>
      <stop offset="30%" style="stop-color:#8b0000;stop-opacity:1"/>
      <stop offset="45%" style="stop-color:#cc0000;stop-opacity:0.95"/>
      <stop offset="60%" style="stop-color:#ff2200;stop-opacity:0.9"/>
      <stop offset="75%" style="stop-color:#f97316;stop-opacity:0.8"/>
      <stop offset="88%" style="stop-color:#ffa500;stop-opacity:0.7"/>
      <stop offset="96%" style="stop-color:#ffd700;stop-opacity:0.6"/>
      <stop offset="100%" style="stop-color:#ffffaa;stop-opacity:0.4"/>
    </linearGradient>
    
    <!-- Precision glow effects -->
    <filter id="precisionGlow" x="-100%" y="-100%" width="300%" height="300%">
      <feGaussianBlur stdDeviation="6" result="bigGlow"/>
      <feGaussianBlur stdDeviation="3" result="midGlow"/>
      <feGaussianBlur stdDeviation="1.5" result="smallGlow"/>
      <feMerge>
        <feMergeNode in="bigGlow"/>
        <feMergeNode in="midGlow"/>
        <feMergeNode in="smallGlow"/>
        <feMergeNode in="SourceGraphic"/>
      </feMerge>
    </filter>
    
    <filter id="coreGlow">
      <feGaussianBlur stdDeviation="3" result="glow1"/>
      <feGaussianBlur stdDeviation="6" result="glow2"/>
      <feMerge>
        <feMergeNode in="glow2"/>
        <feMergeNode in="glow1"/>
        <feMergeNode in="SourceGraphic"/>
      </feMerge>
    </filter>
    
    <filter id="tacticalShadow">
      <feDropShadow dx="0" dy="4" stdDeviation="6" flood-color="#000000" flood-opacity="0.9"/>
    </filter>
    
    <!-- Tactical patterns -->
    <pattern id="techGrid" patternUnits="userSpaceOnUse" width="8" height="8">
      <path d="M 0 0 L 8 0 L 8 8 L 0 8 Z" fill="none" stroke="#1a1a1a" stroke-width="0.3" opacity="0.2"/>
    </pattern>
    
    <!-- Frame gradients -->
    <linearGradient id="tacticalFrame" x1="0%" y1="0%" x2="100%" y2="100%">
      <stop offset="0%" style="stop-color:#888888"/>
      <stop offset="25%" style="stop-color:#666666"/>
      <stop offset="50%" style="stop-color:#444444"/>
      <stop offset="75%" style="stop-color:#333333"/>
      <stop offset="100%" style="stop-color:#1a1a1a"/>
    </linearGradient>
    
    <!-- Circular tactical vignette -->
    <radialGradient id="tacticalVignette" cx="50%" cy="50%">
      <stop offset="0%" style="stop-color:#000000;stop-opacity:0"/>
      <stop offset="60%" style="stop-color:#000000;stop-opacity:0.1"/>
      <stop offset="80%" style="stop-color:#000000;stop-opacity:0.4"/>
      <stop offset="100%" style="stop-color:#000000;stop-opacity:0.85"/>
    </radialGradient>
  </defs>
  
  <!-- Background system -->
  <rect width="400" height="400" fill="#000000"/>
  <rect width="400" height="400" fill="url(#techGrid)"/>
  <rect width="400" height="400" fill="url(#tacticalVignette)"/>
  
  <!-- Tactical reference dot -->
  <circle cx="20" cy="20" r="3" fill="#f97316" opacity="0.9"/>
  
  <!-- Background tactical grid -->
  <g opacity="0.15">
    <line x1="200" y1="0" x2="200" y2="400" stroke="#333333" stroke-width="1"/>
    <line x1="0" y1="200" x2="400" y2="200" stroke="#333333" stroke-width="1"/>
    <circle cx="200" cy="200" r="160" fill="none" stroke="#2a2a2a" stroke-width="0.8"/>
    <circle cx="200" cy="200" r="120" fill="none" stroke="#2a2a2a" stroke-width="0.6"/>
    <circle cx="200" cy="200" r="80" fill="none" stroke="#2a2a2a" stroke-width="0.4"/>
  </g>
  
  <!-- Enhanced hexagonal tactical frame -->
  <g filter="url(#tacticalShadow)">
    <path d="M 200 50 L 325 125 L 325 275 L 200 350 L 75 275 L 75 125 Z" 
          fill="none" stroke="url(#tacticalFrame)" stroke-width="6" opacity="0.8"/>
    <path d="M 200 53 L 322 126 L 322 274 L 200 347 L 78 274 L 78 126 Z" 
          fill="none" stroke="#666666" stroke-width="3" opacity="0.6"/>
    <path d="M 200 56 L 319 128 L 319 272 L 200 344 L 81 272 L 81 128 Z" 
          fill="none" stroke="#ff3300" stroke-width="2" opacity="0.7"/>
    <path d="M 200 59 L 316 130 L 316 270 L 200 341 L 84 270 L 84 130 Z" 
          fill="none" stroke="#ff6600" stroke-width="1" opacity="0.5"/>
  </g>
  
  <!-- Corner tactical brackets -->
  <g stroke="#ff4400" stroke-width="2.5" fill="none" opacity="0.6">
    <path d="M 85,85 L 85,105 L 105,105"/>
    <path d="M 295,105 L 315,105 L 315,85"/>
    <path d="M 315,315 L 315,295 L 295,295"/>
    <path d="M 105,295 L 85,295 L 85,315"/>
  </g>
  
  <!-- HYBRID PHOENIX CORE -->
  <g transform="translate(200, 210) scale(0.95)">
    
    <!-- Tactical sensor ring with organic flow -->
    <g opacity="0.2">
      <circle cx="0" cy="0" r="130" fill="none" stroke="#ffa500" stroke-width="1" stroke-dasharray="3 12" class="animated">
        <animate attributeName="stroke-dashoffset" from="0" to="15" dur="0.4s" repeatCount="indefinite"/>
      </circle>
      <circle cx="0" cy="0" r="115" fill="none" stroke="#ff8800" stroke-width="0.6" stroke-dasharray="2 18" class="animated">
        <animate attributeName="stroke-dashoffset" from="0" to="-20" dur="0.5s" repeatCount="indefinite"/>
      </circle>
    </g>
    
    <!-- Organic rotor with tactical precision -->
    <g opacity="0.15">
      <g class="animated">
        <line x1="-145" y1="0" x2="145" y2="0" stroke="#999999" stroke-width="2.5" transform="rotate(0)"/>
        <line x1="-145" y1="0" x2="145" y2="0" stroke="#999999" stroke-width="2.5" transform="rotate(60)"/>
        <line x1="-145" y1="0" x2="145" y2="0" stroke="#999999" stroke-width="2.5" transform="rotate(120)"/>
        <animateTransform attributeName="transform" type="rotate" from="0 0 0" to="360 0 0" dur="0.3s" repeatCount="indefinite"/>
      </g>
      <circle cx="0" cy="0" r="10" fill="#555555"/>
      <circle cx="0" cy="0" r="5" fill="#888888"/>
    </g>
    
    <!-- Swarm coordination with organic flow -->
    <g opacity="0.18">
      <g class="animated">
        <circle cx="-95" cy="-65" r="2.5" fill="#ffa500">
          <animate attributeName="opacity" values="0.18;0.5;0.18" dur="2.8s" repeatCount="indefinite"/>
        </circle>
        <circle cx="95" cy="-65" r="2.5" fill="#ffa500">
          <animate attributeName="opacity" values="0.18;0.5;0.18" dur="3.2s" repeatCount="indefinite" begin="0.4s"/>
        </circle>
        <circle cx="-85" cy="55" r="2.5" fill="#ffa500">
          <animate attributeName="opacity" values="0.18;0.5;0.18" dur="2.9s" repeatCount="indefinite" begin="0.8s"/>
        </circle>
        <circle cx="85" cy="55" r="2.5" fill="#ffa500">
          <animate attributeName="opacity" values="0.18;0.5;0.18" dur="3.1s" repeatCount="indefinite" begin="1.2s"/>
        </circle>
      </g>
      
      <line x1="0" y1="0" x2="-95" y2="-65" stroke="#ff8800" stroke-width="0.5" opacity="0.4"/>
      <line x1="0" y1="0" x2="95" y2="-65" stroke="#ff8800" stroke-width="0.5" opacity="0.4"/>
      <line x1="0" y1="0" x2="-85" y2="55" stroke="#ff8800" stroke-width="0.5" opacity="0.4"/>
      <line x1="0" y1="0" x2="85" y2="55" stroke="#ff8800" stroke-width="0.5" opacity="0.4"/>
    </g>
    
    <!-- HYBRID WINGS - Organic flow with tactical precision -->
    <g filter="url(#precisionGlow)">
      
      <!-- Tactical speed indicators -->
      <g opacity="0.3" class="animated">
        <line x1="-175" y1="-190" x2="-155" y2="-170" stroke="#ffffff" stroke-width="1.5">
          <animate attributeName="opacity" values="0.3;0.1;0.3" dur="0.25s" repeatCount="indefinite"/>
        </line>
        <line x1="-180" y1="-185" x2="-160" y2="-165" stroke="#ffffff" stroke-width="1">
          <animate attributeName="opacity" values="0.3;0.1;0.3" dur="0.25s" repeatCount="indefinite" begin="0.05s"/>
        </line>
        <line x1="175" y1="-190" x2="155" y2="-170" stroke="#ffffff" stroke-width="1.5">
          <animate attributeName="opacity" values="0.3;0.1;0.3" dur="0.25s" repeatCount="indefinite"/>
        </line>
        <line x1="180" y1="-185" x2="160" y2="-165" stroke="#ffffff" stroke-width="1">
          <animate attributeName="opacity" values="0.3;0.1;0.3" dur="0.25s" repeatCount="indefinite" begin="0.05s"/>
        </line>
      </g>
      
      <!-- Primary organic wing flows with tactical structure -->
      <path d="M 0 -35
               C -8 -38, -20 -45, -40 -65
               C -65 -85, -90 -108, -115 -132
               C -140 -156, -160 -178, -175 -195
               C -185 -208, -190 -218, -192 -222
               C -193 -224, -192 -223, -188 -218
               C -178 -203, -165 -185, -145 -162
               C -120 -135, -92 -105, -65 -78
               C -40 -54, -18 -40, 0 -35
               Z" 
            fill="url(#tacticalFlowLeft)" opacity="0.92"/>
      
      <path d="M 0 -35
               C 8 -38, 20 -45, 40 -65
               C 65 -85, 90 -108, 115 -132
               C 140 -156, 160 -178, 175 -195
               C 185 -208, 190 -218, 192 -222
               C 193 -224, 192 -223, 188 -218
               C 178 -203, 165 -185, 145 -162
               C 120 -135, 92 -105, 65 -78
               C 40 -54, 18 -40, 0 -35
               Z" 
            fill="url(#tacticalFlowRight)" opacity="0.92"/>
      
      <!-- Secondary tactical layers -->
      <path d="M 0 -38
               C -12 -42, -28 -52, -50 -75
               C -75 -98, -95 -120, -110 -140
               C -120 -152, -125 -160, -127 -165
               C -128 -167, -127 -166, -123 -161
               C -110 -142, -88 -118, -62 -90
               C -35 -62, -15 -45, 0 -38
               Z" 
            fill="#990000" opacity="0.85"/>
      
      <path d="M 0 -38
               C 12 -42, 28 -52, 50 -75
               C 75 -98, 95 -120, 110 -140
               C 120 -152, 125 -160, 127 -165
               C 128 -167, 127 -166, 123 -161
               C 110 -142, 88 -118, 62 -90
               C 35 -62, 15 -45, 0 -38
               Z" 
            fill="#990000" opacity="0.85"/>
      
      <!-- Tactical feather definition -->
      <path d="M 0 -42
               C -15 -46, -35 -58, -58 -82
               C -80 -104, -98 -125, -108 -140
               C -110 -143, -109 -142, -105 -137
               C -92 -118, -70 -95, -45 -70
               C -22 -48, -8 -42, 0 -42
               Z" 
            fill="#cc0000" opacity="0.8"/>
      
      <path d="M 0 -42
               C 15 -46, 35 -58, 58 -82
               C 80 -104, 98 -125, 108 -140
               C 110 -143, 109 -142, 105 -137
               C 92 -118, 70 -95, 45 -70
               C 22 -48, 8 -42, 0 -42
               Z" 
            fill="#cc0000" opacity="0.8"/>
      
      <!-- Inner tactical flame layer -->
      <path d="M 0 -45
               C -18 -49, -40 -62, -65 -88
               C -85 -110, -98 -128, -105 -140
               C -106 -142, -105 -141, -101 -136
               C -88 -117, -68 -95, -45 -72
               C -25 -52, -10 -45, 0 -45
               Z" 
            fill="#ff2200" opacity="0.75"/>
      
      <path d="M 0 -45
               C 18 -49, 40 -62, 65 -88
               C 85 -110, 98 -128, 105 -140
               C 106 -142, 105 -141, 101 -136
               C 88 -117, 68 -95, 45 -72
               C 25 -52, 10 -45, 0 -45
               Z" 
            fill="#ff2200" opacity="0.75"/>
    </g>
    
    <!-- Tactical feather details with organic flow -->
    <g opacity="0.75" filter="url(#coreGlow)">
      <!-- Left tactical feathers -->
      <path d="M -12 -32 L -15 -36 L -16 -37 L -14 -35 L -12 -32 Z" fill="#ffffaa" opacity="0.7"/>
      <path d="M -18 -42 L -22 -47 L -23 -48 L -21 -46 L -18 -42 Z" fill="#ffd700" opacity="0.75"/>
      <path d="M -24 -52 L -28 -58 L -29 -59 L -27 -57 L -24 -52 Z" fill="#ffa500" opacity="0.8"/>
      <path d="M -30 -62 L -34 -69 L -35 -70 L -33 -68 L -30 -62 Z" fill="#f97316" opacity="0.8"/>
      <path d="M -36 -72 L -40 -80 L -41 -81 L -39 -79 L -36 -72 Z" fill="#ff2200" opacity="0.8"/>
      
      <!-- Right tactical feathers -->
      <path d="M 12 -32 L 15 -36 L 16 -37 L 14 -35 L 12 -32 Z" fill="#ffffaa" opacity="0.7"/>
      <path d="M 18 -42 L 22 -47 L 23 -48 L 21 -46 L 18 -42 Z" fill="#ffd700" opacity="0.75"/>
      <path d="M 24 -52 L 28 -58 L 29 -59 L 27 -57 L 24 -52 Z" fill="#ffa500" opacity="0.8"/>
      <path d="M 30 -62 L 34 -69 L 35 -70 L 33 -68 L 30 -62 Z" fill="#f97316" opacity="0.8"/>
      <path d="M 36 -72 L 40 -80 L 41 -81 L 39 -79 L 36 -72 Z" fill="#ff2200" opacity="0.8"/>
    </g>
    
    <!-- Enhanced tactical body core -->
    <g filter="url(#tacticalShadow)">
      <!-- Base tactical silhouette -->
      <ellipse cx="0" cy="15" rx="26" ry="48" fill="#0a0a0a" opacity="0.8"/>
      <ellipse cx="0" cy="12" rx="23" ry="45" fill="#1a1a1a" stroke="#333333" stroke-width="0.8" opacity="0.9"/>
      
      <!-- Primary hybrid plasma body -->
      <path d="M 0 -45 C -12 -43, -18 -40, -20 -35 C -21 -30, -20 -24, -18 -18
               L -16 -8 L -13 5 L -11 18 L -9 30 L -7 40 L -4 48
               L 0 52
               L 4 48 L 7 40 L 9 30 L 11 18 L 13 5 L 16 -8
               L 18 -18 C 20 -24, 21 -30, 20 -35 C 18 -40, 12 -43, 0 -45 Z"
            fill="url(#hybridCore)" opacity="0.95"/>
      
      <!-- Tactical body segments with organic flow -->
      <ellipse cx="0" cy="-28" rx="8" ry="6" fill="#ff0000" opacity="0.9"/>
      <ellipse cx="0" cy="-18" rx="10" ry="7" fill="#ff1100" opacity="0.85"/>
      <ellipse cx="0" cy="-8" rx="11" ry="8" fill="#ff2200" opacity="0.8"/>
      <ellipse cx="0" cy="2" rx="12" ry="8" fill="#ff3300" opacity="0.75"/>
      <ellipse cx="0" cy="12" rx="11" ry="8" fill="#ff4400" opacity="0.7"/>
      <ellipse cx="0" cy="22" rx="10" ry="7" fill="#ff5500" opacity="0.65"/>
      <ellipse cx="0" cy="32" rx="8" ry="6" fill="#ff6600" opacity="0.6"/>
      <ellipse cx="0" cy="42" rx="6" ry="5" fill="#ff7700" opacity="0.55"/>
      
      <!-- Inner white-hot tactical core -->
      <ellipse cx="0" cy="10" rx="8" ry="35" fill="#ffffff" opacity="0.6"/>
      <ellipse cx="0" cy="8" rx="5" ry="28" fill="#ffffff" opacity="0.8"/>
      
      <!-- Tactical segment definition -->
      <g stroke="#cc0000" stroke-width="0.6" opacity="0.35">
        <line x1="-12" y1="-23" x2="12" y2="-23"/>
        <line x1="-13" y1="-13" x2="13" y2="-13"/>
        <line x1="-13" y1="-3" x2="13" y2="-3"/>
        <line x1="-13" y1="7" x2="13" y2="7"/>
        <line x1="-12" y1="17" x2="12" y2="17"/>
        <line x1="-11" y1="27" x2="11" y2="27"/>
        <line x1="-9" y1="37" x2="9" y2="37"/>
      </g>
      
      <!-- Enhanced tactical sensor array -->
      <g class="animated">
        <circle cx="-8" cy="-12" r="1.2" fill="#ffa500" opacity="0.6">
          <animate attributeName="opacity" values="0.6;1;0.6" dur="0.22s" repeatCount="indefinite"/>
        </circle>
        <circle cx="8" cy="-12" r="1.2" fill="#ffa500" opacity="0.6">
          <animate attributeName="opacity" values="0.6;1;0.6" dur="0.28s" repeatCount="indefinite" begin="0.1s"/>
        </circle>
        <circle cx="-9" cy="3" r="1.2" fill="#ffa500" opacity="0.6">
          <animate attributeName="opacity" values="0.6;1;0.6" dur="0.25s" repeatCount="indefinite" begin="0.05s"/>
        </circle>
        <circle cx="9" cy="3" r="1.2" fill="#ffa500" opacity="0.6">
          <animate attributeName="opacity" values="0.6;1;0.6" dur="0.24s" repeatCount="indefinite" begin="0.15s"/>
        </circle>
        <circle cx="-8" cy="18" r="1.2" fill="#ffa500" opacity="0.6">
          <animate attributeName="opacity" values="0.6;1;0.6" dur="0.26s" repeatCount="indefinite" begin="0.08s"/>
        </circle>
        <circle cx="8" cy="18" r="1.2" fill="#ffa500" opacity="0.6">
          <animate attributeName="opacity" values="0.6;1;0.6" dur="0.23s" repeatCount="indefinite" begin="0.18s"/>
        </circle>
      </g>
    </g>
    
    <!-- Enhanced tactical crown -->
    <g filter="url(#precisionGlow)">
      <path d="M 0 -65 L -12 -78 L -8 -75 L -4 -76 L 0 -82 L 4 -76 L 8 -75 L 12 -78 Z"
            fill="#ffffff" opacity="1"/>
      <path d="M 0 -62 L -10 -72 L -6 -70 L 0 -75 L 6 -70 L 10 -72 Z"
            fill="#ffff00" opacity="0.95"/>
      <path d="M 0 -59 L -8 -66 L 0 -70 L 8 -66 Z"
            fill="#ffd700" opacity="0.9"/>
      
      <circle cx="0" cy="-65" r="6" fill="#ffffff" opacity="0.9" class="animated">
        <animate attributeName="r" values="6;8;6" dur="0.3s" repeatCount="indefinite"/>
      </circle>
      <circle cx="0" cy="-65" r="3" fill="#ffffff" opacity="1"/>
    </g>
    
    <!-- Enhanced tactical tail system -->
    <g filter="url(#coreGlow)">
      <path d="M 0 50 L -15 65 L -18 78 L -16 88 L -12 92 L -8 89 L -4 78 L 0 62 Z" 
            fill="url(#tacticalFlowLeft)" opacity="0.9"/>
      <path d="M 0 50 L 15 65 L 18 78 L 16 88 L 12 92 L 8 89 L 4 78 L 0 62 Z" 
            fill="url(#tacticalFlowRight)" opacity="0.9"/>
      
      <path d="M 0 52 L -11 68 L -13 78 L -11 85 L -7 83 L -3 75 L 0 65 Z" 
            fill="#cc0000" opacity="0.85"/>
      <path d="M 0 52 L 11 68 L 13 78 L 11 85 L 7 83 L 3 75 L 0 65 Z" 
            fill="#cc0000" opacity="0.85"/>
      
      <path d="M 0 65 L -6 78 L -7 85 L -5 88 L -2 85 L 0 78 Z" 
            fill="#ff4400" opacity="0.8"/>
      <path d="M 0 65 L 6 78 L 7 85 L 5 88 L 2 85 L 0 78 Z" 
            fill="#ff4400" opacity="0.8"/>
      
      <path d="M 0 78 L -3 88 L -3 92 L -1 91 L 0 88 Z" 
            fill="#ff6600" opacity="0.75"/>
      <path d="M 0 78 L 3 88 L 3 92 L 1 91 L 0 88 Z" 
            fill="#ff6600" opacity="0.75"/>
      
      <path d="M 0 88 L 0 95" stroke="#ffa500" stroke-width="6" opacity="0.8" class="animated">
        <animate attributeName="stroke-width" values="6;4;6" dur="0.2s" repeatCount="indefinite"/>
      </path>
      <path d="M 0 88 L 0 95" stroke="#ffffff" stroke-width="2" opacity="0.7"/>
    </g>
    
    <!-- Enhanced ember particles with tactical precision -->
    <g opacity="0.6" filter="url(#coreGlow)" class="animated">
      <circle cx="-40" cy="-55" r="1.2" fill="#fffacd">
        <animate attributeName="cy" values="-55;-63;-55" dur="3.2s" repeatCount="indefinite"/>
      </circle>
      <circle cx="-70" cy="-75" r="1" fill="#ffd700">
        <animate attributeName="cy" values="-75;-83;-75" dur="3.8s" repeatCount="indefinite"/>
      </circle>
      <circle cx="-100" cy="-95" r="0.8" fill="#ffa500">
        <animate attributeName="cy" values="-95;-103;-95" dur="4.2s" repeatCount="indefinite"/>
      </circle>
      <circle cx="-125" cy="-115" r="0.6" fill="#f97316">
        <animate attributeName="cy" values="-115;-123;-115" dur="4.8s" repeatCount="indefinite"/>
      </circle>
      
      <circle cx="40" cy="-55" r="1.2" fill="#fffacd">
        <animate attributeName="cy" values="-55;-63;-55" dur="3.2s" repeatCount="indefinite"/>
      </circle>
      <circle cx="70" cy="-75" r="1" fill="#ffd700">
        <animate attributeName="cy" values="-75;-83;-75" dur="3.8s" repeatCount="indefinite"/>
      </circle>
      <circle cx="100" cy="-95" r="0.8" fill="#ffa500">
        <animate attributeName="cy" values="-95;-103;-95" dur="4.2s" repeatCount="indefinite"/>
      </circle>
      <circle cx="125" cy="-115" r="0.6" fill="#f97316">
        <animate attributeName="cy" values="-115;-123;-115" dur="4.8s" repeatCount="indefinite"/>
      </circle>
    </g>
  </g>
  
  <!-- Enhanced tactical text -->
  <g filter="url(#tacticalShadow)">
    <text x="200" y="330" font-family="'Bebas Neue', Impact, Arial Black, sans-serif" font-size="44" font-weight="900" 
          text-anchor="middle" fill="#ffffff" letter-spacing="5" stroke="#1a1a1a" stroke-width="0.8">
      PHOENIX
    </text>
    <text x="200" y="368" font-family="'Bebas Neue', Impact, Arial Black, sans-serif" font-size="44" font-weight="900" 
          text-anchor="middle" fill="#f97316" letter-spacing="5" stroke="#4a0000" stroke-width="0.8">
      ROOIVALK
    </text>
  </g>
</svg>