<svg viewBox="0 0 1700 300" xmlns="http://www.w3.org/2000/svg" role="img" aria-labelledby="phoenix-banner-title phoenix-banner-desc">
  <title id="phoenix-banner-title">Phoenix Rooivalk Banner</title>
  <desc id="phoenix-banner-desc">Wide format tactical phoenix banner combining organic fire aesthetics with precision engineering elements for horizontal displays</desc>
  
  <style>
    @media (prefers-reduced-motion: reduce) {
      .animated { animation: none !important; }
      * { animation-play-state: paused !important; }
    }
  </style>
  
  <defs>
    <!-- Hybrid plasma-tactical gradients -->
    <radialGradient id="hybridCore" cx="50%" cy="30%">
      <stop offset="0%" style="stop-color:#ffffff;stop-opacity:1"/>
      <stop offset="5%" style="stop-color:#ffffee;stop-opacity:1"/>
      <stop offset="12%" style="stop-color:#ffffaa;stop-opacity:1"/>
      <stop offset="20%" style="stop-color:#ffff66;stop-opacity:1"/>
      <stop offset="28%" style="stop-color:#ffd700;stop-opacity:1"/>
      <stop offset="38%" style="stop-color:#ffa500;stop-opacity:1"/>
      <stop offset="50%" style="stop-color:#f97316;stop-opacity:1"/>
      <stop offset="65%" style="stop-color:#ff2200;stop-opacity:1"/>
      <stop offset="80%" style="stop-color:#cc0000;stop-opacity:1"/>
      <stop offset="100%" style="stop-color:#8b0000;stop-opacity:1"/>
    </radialGradient>
    
    <!-- Banner wing gradients -->
    <linearGradient id="bannerWingLeft" x1="0%" y1="100%" x2="100%" y2="0%">
      <stop offset="0%" style="stop-color:#2a0000;stop-opacity:1"/>
      <stop offset="15%" style="stop-color:#550000;stop-opacity:1"/>
      <stop offset="30%" style="stop-color:#8b0000;stop-opacity:1"/>
      <stop offset="45%" style="stop-color:#cc0000;stop-opacity:0.95"/>
      <stop offset="60%" style="stop-color:#ff2200;stop-opacity:0.9"/>
      <stop offset="75%" style="stop-color:#f97316;stop-opacity:0.8"/>
      <stop offset="88%" style="stop-color:#ffa500;stop-opacity:0.7"/>
      <stop offset="96%" style="stop-color:#ffd700;stop-opacity:0.6"/>
      <stop offset="100%" style="stop-color:#ffffaa;stop-opacity:0.4"/>
    </linearGradient>
    
    <linearGradient id="bannerWingRight" x1="100%" y1="100%" x2="0%" y2="0%">
      <stop offset="0%" style="stop-color:#2a0000;stop-opacity:1"/>
      <stop offset="15%" style="stop-color:#550000;stop-opacity:1"/>
      <stop offset="30%" style="stop-color:#8b0000;stop-opacity:1"/>
      <stop offset="45%" style="stop-color:#cc0000;stop-opacity:0.95"/>
      <stop offset="60%" style="stop-color:#ff2200;stop-opacity:0.9"/>
      <stop offset="75%" style="stop-color:#f97316;stop-opacity:0.8"/>
      <stop offset="88%" style="stop-color:#ffa500;stop-opacity:0.7"/>
      <stop offset="96%" style="stop-color:#ffd700;stop-opacity:0.6"/>
      <stop offset="100%" style="stop-color:#ffffaa;stop-opacity:0.4"/>
    </linearGradient>
    
    <!-- Precision glow effects -->
    <filter id="precisionGlow" x="-50%" y="-50%" width="200%" height="200%">
      <feGaussianBlur stdDeviation="4" result="bigGlow"/>
      <feGaussianBlur stdDeviation="2" result="midGlow"/>
      <feGaussianBlur stdDeviation="1" result="smallGlow"/>
      <feMerge>
        <feMergeNode in="bigGlow"/>
        <feMergeNode in="midGlow"/>
        <feMergeNode in="smallGlow"/>
        <feMergeNode in="SourceGraphic"/>
      </feMerge>
    </filter>
    
    <filter id="coreGlow">
      <feGaussianBlur stdDeviation="2" result="glow1"/>
      <feGaussianBlur stdDeviation="4" result="glow2"/>
      <feMerge>
        <feMergeNode in="glow2"/>
        <feMergeNode in="glow1"/>
        <feMergeNode in="SourceGraphic"/>
      </feMerge>
    </filter>
    
    <filter id="tacticalShadow">
      <feDropShadow dx="0" dy="3" stdDeviation="4" flood-color="#000000" flood-opacity="0.8"/>
    </filter>
    
    <!-- Banner tactical patterns -->
    <pattern id="bannerTechGrid" patternUnits="userSpaceOnUse" width="12" height="12">
      <path d="M 0 0 L 12 0 L 12 12 L 0 12 Z" fill="none" stroke="#1a1a1a" stroke-width="0.4" opacity="0.15"/>
    </pattern>
    
    <!-- Banner frame gradients -->
    <linearGradient id="bannerFrame" x1="0%" y1="0%" x2="100%" y2="100%">
      <stop offset="0%" style="stop-color:#888888"/>
      <stop offset="25%" style="stop-color:#666666"/>
      <stop offset="50%" style="stop-color:#444444"/>
      <stop offset="75%" style="stop-color:#333333"/>
      <stop offset="100%" style="stop-color:#1a1a1a"/>
    </linearGradient>
    
    <!-- Banner vignette -->
    <linearGradient id="bannerVignette" x1="0%" y1="0%" x2="100%" y2="0%">
      <stop offset="0%" style="stop-color:#000000;stop-opacity:0.9"/>
      <stop offset="15%" style="stop-color:#000000;stop-opacity:0.3"/>
      <stop offset="50%" style="stop-color:#000000;stop-opacity:0.1"/>
      <stop offset="85%" style="stop-color:#000000;stop-opacity:0.3"/>
      <stop offset="100%" style="stop-color:#000000;stop-opacity:0.9"/>
    </linearGradient>
  </defs>
  
  <!-- Background system -->
  <rect width="1700" height="300" fill="#000000"/>
  <rect width="1700" height="300" fill="url(#bannerTechGrid)"/>
  <rect width="1700" height="300" fill="url(#bannerVignette)"/>
  
  <!-- Tactical reference dots -->
  <circle cx="50" cy="50" r="4" fill="#f97316" opacity="0.9"/>
  <circle cx="1650" cy="50" r="4" fill="#f97316" opacity="0.9"/>
  
  <!-- Banner tactical grid -->
  <g opacity="0.1">
    <line x1="850" y1="0" x2="850" y2="300" stroke="#333333" stroke-width="1"/>
    <line x1="425" y1="0" x2="425" y2="300" stroke="#2a2a2a" stroke-width="0.8"/>
    <line x1="1275" y1="0" x2="1275" y2="300" stroke="#2a2a2a" stroke-width="0.8"/>
    <ellipse cx="850" cy="150" rx="400" ry="100" fill="none" stroke="#2a2a2a" stroke-width="0.6"/>
    <ellipse cx="850" cy="150" rx="300" ry="75" fill="none" stroke="#2a2a2a" stroke-width="0.4"/>
  </g>
  
  <!-- Enhanced banner tactical frame -->
  <g filter="url(#tacticalShadow)">
    <rect x="15" y="15" width="1670" height="270" fill="none" stroke="url(#bannerFrame)" stroke-width="10" opacity="0.7"/>
    <rect x="25" y="25" width="1650" height="250" fill="none" stroke="#666666" stroke-width="5" opacity="0.5"/>
    <rect x="35" y="35" width="1630" height="230" fill="none" stroke="#ff3300" stroke-width="4" opacity="0.6"/>
    <rect x="45" y="45" width="1610" height="210" fill="none" stroke="#ff6600" stroke-width="3" opacity="0.5"/>
    <rect x="55" y="55" width="1590" height="190" fill="none" stroke="#ffa500" stroke-width="2" opacity="0.4"/>
  </g>
  
  <!-- Enhanced corner tactical brackets -->
  <g stroke="#ff4400" stroke-width="4" fill="none" opacity="0.7">
    <path d="M 55,55 L 55,90 L 90,90"/>
    <path d="M 1645,90 L 1610,90 L 1610,55"/>
    <path d="M 1610,245 L 1610,210 L 1645,210"/>
    <path d="M 90,210 L 55,210 L 55,245"/>
  </g>
  
  <!-- Additional tactical corner details -->
  <g stroke="#ffa500" stroke-width="2" fill="none" opacity="0.5">
    <path d="M 70,70 L 70,110 L 110,110"/>
    <path d="M 1630,110 L 1590,110 L 1590,70"/>
    <path d="M 1590,230 L 1590,190 L 1630,190"/>
    <path d="M 110,190 L 70,190 L 70,230"/>
  </g>
  
  <!-- PHOENIX CORE SYSTEM (Center-left) -->
  <g transform="translate(400, 150) scale(1.1)">
    
    <!-- Tactical sensor ring -->
    <g opacity="0.2">
      <ellipse cx="0" cy="0" rx="120" ry="60" fill="none" stroke="#ffa500" stroke-width="1" stroke-dasharray="4 16" class="animated">
        <animate attributeName="stroke-dashoffset" from="0" to="20" dur="0.6s" repeatCount="indefinite"/>
      </ellipse>
      <ellipse cx="0" cy="0" rx="100" ry="50" fill="none" stroke="#ff8800" stroke-width="0.8" stroke-dasharray="2 20" class="animated">
        <animate attributeName="stroke-dashoffset" from="0" to="-22" dur="0.7s" repeatCount="indefinite"/>
      </ellipse>
    </g>
    
    <!-- Rotor system -->
    <g opacity="0.15">
      <g class="animated">
        <line x1="-120" y1="0" x2="120" y2="0" stroke="#999999" stroke-width="2" transform="rotate(0)"/>
        <line x1="-120" y1="0" x2="120" y2="0" stroke="#999999" stroke-width="2" transform="rotate(60)"/>
        <line x1="-120" y1="0" x2="120" y2="0" stroke="#999999" stroke-width="2" transform="rotate(120)"/>
        <animateTransform attributeName="transform" type="rotate" from="0 0 0" to="360 0 0" dur="0.4s" repeatCount="indefinite"/>
      </g>
      <circle cx="0" cy="0" r="8" fill="#555555"/>
      <circle cx="0" cy="0" r="4" fill="#888888"/>
    </g>
    
    <!-- Swarm coordination -->
    <g opacity="0.18">
      <g class="animated">
        <circle cx="-80" cy="-40" r="2" fill="#ffa500">
          <animate attributeName="opacity" values="0.18;0.5;0.18" dur="3s" repeatCount="indefinite"/>
        </circle>
        <circle cx="80" cy="-40" r="2" fill="#ffa500">
          <animate attributeName="opacity" values="0.18;0.5;0.18" dur="3.5s" repeatCount="indefinite" begin="0.5s"/>
        </circle>
        <circle cx="-70" cy="35" r="2" fill="#ffa500">
          <animate attributeName="opacity" values="0.18;0.5;0.18" dur="3.2s" repeatCount="indefinite" begin="1s"/>
        </circle>
        <circle cx="70" cy="35" r="2" fill="#ffa500">
          <animate attributeName="opacity" values="0.18;0.5;0.18" dur="3.3s" repeatCount="indefinite" begin="1.5s"/>
        </circle>
      </g>
    </g>
    
    <!-- BANNER WINGS -->
    <g filter="url(#precisionGlow)">
      
      <!-- Speed indicators -->
      <g opacity="0.3" class="animated">
        <line x1="-140" y1="-60" x2="-120" y2="-40" stroke="#ffffff" stroke-width="1.5">
          <animate attributeName="opacity" values="0.3;0.1;0.3" dur="0.3s" repeatCount="indefinite"/>
        </line>
        <line x1="140" y1="-60" x2="120" y2="-40" stroke="#ffffff" stroke-width="1.5">
          <animate attributeName="opacity" values="0.3;0.1;0.3" dur="0.3s" repeatCount="indefinite"/>
        </line>
      </g>
      
      <!-- Primary wing layers -->
      <path d="M 0 -25
               C -15 -28, -35 -38, -55 -50
               C -75 -62, -95 -75, -115 -88
               C -130 -98, -140 -105, -145 -108
               C -146 -109, -145 -108, -142 -105
               C -130 -92, -115 -77, -95 -60
               C -70 -40, -40 -28, 0 -25
               Z" 
            fill="url(#bannerWingLeft)" opacity="0.9"/>
      
      <path d="M 0 -25
               C 15 -28, 35 -38, 55 -50
               C 75 -62, 95 -75, 115 -88
               C 130 -98, 140 -105, 145 -108
               C 146 -109, 145 -108, 142 -105
               C 130 -92, 115 -77, 95 -60
               C 70 -40, 40 -28, 0 -25
               Z" 
            fill="url(#bannerWingRight)" opacity="0.9"/>
      
      <!-- Secondary layers -->
      <path d="M 0 -30
               C -12 -33, -28 -42, -45 -55
               C -62 -68, -78 -80, -92 -90
               C -95 -92, -94 -91, -91 -88
               C -78 -72, -62 -55, -42 -38
               C -25 -30, -10 -28, 0 -30
               Z" 
            fill="#990000" opacity="0.8"/>
      
      <path d="M 0 -30
               C 12 -33, 28 -42, 45 -55
               C 62 -68, 78 -80, 92 -90
               C 95 -92, 94 -91, 91 -88
               C 78 -72, 62 -55, 42 -38
               C 25 -30, 10 -28, 0 -30
               Z" 
            fill="#990000" opacity="0.8"/>
    </g>
    
    <!-- Tactical body core -->
    <g filter="url(#tacticalShadow)">
      <ellipse cx="0" cy="5" rx="18" ry="35" fill="#0a0a0a" opacity="0.8"/>
      <ellipse cx="0" cy="3" rx="15" ry="32" fill="#1a1a1a" stroke="#333333" stroke-width="0.6" opacity="0.9"/>
      
      <path d="M 0 -35 C -8 -33, -12 -30, -13 -25 C -14 -20, -13 -15, -11 -10
               L -9 -5 L -7 5 L -5 15 L -3 25 L -2 35
               L 0 40
               L 2 35 L 3 25 L 5 15 L 7 5 L 9 -5
               L 11 -10 C 13 -15, 14 -20, 13 -25 C 12 -30, 8 -33, 0 -35 Z"
            fill="url(#hybridCore)" opacity="0.95"/>
      
      <!-- Body segments -->
      <ellipse cx="0" cy="-20" rx="6" ry="4" fill="#ff0000" opacity="0.9"/>
      <ellipse cx="0" cy="-10" rx="7" ry="5" fill="#ff2200" opacity="0.85"/>
      <ellipse cx="0" cy="0" rx="8" ry="6" fill="#ff4400" opacity="0.8"/>
      <ellipse cx="0" cy="10" rx="7" ry="5" fill="#ff6600" opacity="0.75"/>
      <ellipse cx="0" cy="20" rx="6" ry="4" fill="#ff8800" opacity="0.7"/>
      <ellipse cx="0" cy="30" rx="4" ry="3" fill="#ffaa00" opacity="0.65"/>
      
      <!-- Inner core -->
      <ellipse cx="0" cy="5" rx="6" ry="25" fill="#ffffff" opacity="0.6"/>
      <ellipse cx="0" cy="3" rx="4" ry="20" fill="#ffffff" opacity="0.8"/>
      
      <!-- Sensor array -->
      <g class="animated">
        <circle cx="-6" cy="-8" r="1" fill="#ffa500" opacity="0.6">
          <animate attributeName="opacity" values="0.6;1;0.6" dur="0.25s" repeatCount="indefinite"/>
        </circle>
        <circle cx="6" cy="-8" r="1" fill="#ffa500" opacity="0.6">
          <animate attributeName="opacity" values="0.6;1;0.6" dur="0.3s" repeatCount="indefinite" begin="0.1s"/>
        </circle>
        <circle cx="-7" cy="5" r="1" fill="#ffa500" opacity="0.6">
          <animate attributeName="opacity" values="0.6;1;0.6" dur="0.28s" repeatCount="indefinite" begin="0.05s"/>
        </circle>
        <circle cx="7" cy="5" r="1" fill="#ffa500" opacity="0.6">
          <animate attributeName="opacity" values="0.6;1;0.6" dur="0.26s" repeatCount="indefinite" begin="0.15s"/>
        </circle>
      </g>
    </g>
    
    <!-- Tactical crown -->
    <g filter="url(#precisionGlow)">
      <path d="M 0 -45 L -8 -55 L -5 -52 L -2 -53 L 0 -58 L 2 -53 L 5 -52 L 8 -55 Z"
            fill="#ffffff" opacity="1"/>
      <path d="M 0 -42 L -6 -50 L -3 -48 L 0 -52 L 3 -48 L 6 -50 Z"
            fill="#ffff00" opacity="0.95"/>
      
      <circle cx="0" cy="-45" r="4" fill="#ffffff" opacity="0.9" class="animated">
        <animate attributeName="r" values="4;6;4" dur="0.35s" repeatCount="indefinite"/>
      </circle>
      <circle cx="0" cy="-45" r="2" fill="#ffffff" opacity="1"/>
    </g>
    
    <!-- Tail system -->
    <g filter="url(#coreGlow)">
      <path d="M 0 35 L -10 48 L -12 58 L -10 65 L -8 63 L -5 55 L -2 43 L 0 38 Z" 
            fill="url(#bannerWingLeft)" opacity="0.9"/>
      <path d="M 0 35 L 10 48 L 12 58 L 10 65 L 8 63 L 5 55 L 2 43 L 0 38 Z" 
            fill="url(#bannerWingRight)" opacity="0.9"/>
      
      <path d="M 0 37 L -7 50 L -8 58 L -6 62 L -4 60 L -2 53 L 0 45 Z" 
            fill="#cc0000" opacity="0.8"/>
      <path d="M 0 37 L 7 50 L 8 58 L 6 62 L 4 60 L 2 53 L 0 45 Z" 
            fill="#cc0000" opacity="0.8"/>
      
      <path d="M 0 58 L 0 65" stroke="#ffa500" stroke-width="4" opacity="0.8" class="animated">
        <animate attributeName="stroke-width" values="4;2;4" dur="0.25s" repeatCount="indefinite"/>
      </path>
      <path d="M 0 58 L 0 65" stroke="#ffffff" stroke-width="1.5" opacity="0.7"/>
    </g>
    
    <!-- Ember particles -->
    <g opacity="0.6" filter="url(#coreGlow)" class="animated">
      <circle cx="-30" cy="-35" r="1" fill="#fffacd">
        <animate attributeName="cy" values="-35;-42;-35" dur="3.5s" repeatCount="indefinite"/>
      </circle>
      <circle cx="-60" cy="-45" r="0.8" fill="#ffd700">
        <animate attributeName="cy" values="-45;-52;-45" dur="4s" repeatCount="indefinite"/>
      </circle>
      <circle cx="-90" cy="-55" r="0.6" fill="#ffa500">
        <animate attributeName="cy" values="-55;-62;-55" dur="4.5s" repeatCount="indefinite"/>
      </circle>
      
      <circle cx="30" cy="-35" r="1" fill="#fffacd">
        <animate attributeName="cy" values="-35;-42;-35" dur="3.5s" repeatCount="indefinite"/>
      </circle>
      <circle cx="60" cy="-45" r="0.8" fill="#ffd700">
        <animate attributeName="cy" values="-45;-52;-45" dur="4s" repeatCount="indefinite"/>
      </circle>
      <circle cx="90" cy="-55" r="0.6" fill="#ffa500">
        <animate attributeName="cy" values="-55;-62;-55" dur="4.5s" repeatCount="indefinite"/>
      </circle>
    </g>
  </g>
  
  <!-- Enhanced Banner Text with Better Positioning -->
  <g filter="url(#tacticalShadow)">
    <!-- Main brand text positioned closer to center -->
    <text x="1000" y="140" font-family="'Bebas Neue', Impact, Arial Black, sans-serif" font-size="64" font-weight="900" 
          text-anchor="middle" fill="#ffffff" letter-spacing="6" stroke="#1a1a1a" stroke-width="1.5">
      PHOENIX
    </text>
    <text x="1000" y="190" font-family="'Bebas Neue', Impact, Arial Black, sans-serif" font-size="64" font-weight="900" 
          text-anchor="middle" fill="#f97316" letter-spacing="6" stroke="#4a0000" stroke-width="1.5">
      ROOIVALK
    </text>
  </g>
  
  <!-- Enhanced tactical tagline -->
  <g filter="url(#tacticalShadow)">
    <text x="1000" y="220" font-family="'Arial', sans-serif" font-size="16" font-weight="700" 
          text-anchor="middle" fill="#ffa500" letter-spacing="4" stroke="#2a0000" stroke-width="0.8">
      TACTICAL COUNTER-DRONE DEFENSE SYSTEMS
    </text>
  </g>
  
  <!-- Central tactical connection elements -->
  <g transform="translate(850, 150)" opacity="0.15">
    <!-- Central tactical hub -->
    <circle cx="0" cy="0" r="40" fill="none" stroke="#ff6600" stroke-width="2" stroke-dasharray="3 8" class="animated">
      <animate attributeName="stroke-dashoffset" from="0" to="11" dur="0.8s" repeatCount="indefinite"/>
    </circle>
    <circle cx="0" cy="0" r="25" fill="none" stroke="#ffa500" stroke-width="1.5" stroke-dasharray="2 12" class="animated">
      <animate attributeName="stroke-dashoffset" from="0" to="-14" dur="1s" repeatCount="indefinite"/>
    </circle>
    
    <!-- Tactical connection lines -->
    <g class="animated">
      <line x1="-200" y1="0" x2="200" y2="0" stroke="#ff8800" stroke-width="1" opacity="0.3" stroke-dasharray="5 15">
        <animate attributeName="stroke-dashoffset" from="0" to="20" dur="2s" repeatCount="indefinite"/>
      </line>
      <line x1="-150" y1="-30" x2="150" y2="30" stroke="#ff6600" stroke-width="0.8" opacity="0.25" stroke-dasharray="3 12">
        <animate attributeName="stroke-dashoffset" from="0" to="15" dur="2.5s" repeatCount="indefinite"/>
      </line>
      <line x1="-150" y1="30" x2="150" y2="-30" stroke="#ff6600" stroke-width="0.8" opacity="0.25" stroke-dasharray="3 12">
        <animate attributeName="stroke-dashoffset" from="0" to="15" dur="2.5s" repeatCount="indefinite"/>
      </line>
    </g>
    
    <!-- Central tactical indicators -->
    <g class="animated">
      <circle cx="-100" cy="0" r="2" fill="#ffa500">
        <animate attributeName="opacity" values="0.15;0.5;0.15" dur="2.8s" repeatCount="indefinite"/>
      </circle>
      <circle cx="100" cy="0" r="2" fill="#ffa500">
        <animate attributeName="opacity" values="0.15;0.5;0.15" dur="2.8s" repeatCount="indefinite" begin="0.5s"/>
      </circle>
      <circle cx="0" cy="-40" r="1.5" fill="#ff6600">
        <animate attributeName="opacity" values="0.15;0.4;0.15" dur="3s" repeatCount="indefinite" begin="1s"/>
      </circle>
      <circle cx="0" cy="40" r="1.5" fill="#ff6600">
        <animate attributeName="opacity" values="0.15;0.4;0.15" dur="3s" repeatCount="indefinite" begin="1.5s"/>
      </circle>
    </g>
  </g>
  
  <!-- Additional tactical elements for middle space -->
  <g transform="translate(700, 150)" opacity="0.12">
    <!-- Left tactical node -->
    <circle cx="0" cy="0" r="30" fill="none" stroke="#ff6600" stroke-width="1" stroke-dasharray="2 8" class="animated">
      <animate attributeName="stroke-dashoffset" from="0" to="10" dur="1.2s" repeatCount="indefinite"/>
    </circle>
    <g class="animated">
      <circle cx="-15" cy="-10" r="1.5" fill="#ff6600">
        <animate attributeName="opacity" values="0.12;0.3;0.12" dur="2.5s" repeatCount="indefinite"/>
      </circle>
      <circle cx="15" cy="10" r="1.5" fill="#ff6600">
        <animate attributeName="opacity" values="0.12;0.3;0.12" dur="2.5s" repeatCount="indefinite" begin="0.8s"/>
      </circle>
    </g>
  </g>
  
  <g transform="translate(1000, 150)" opacity="0.12">
    <!-- Right tactical node -->
    <circle cx="0" cy="0" r="30" fill="none" stroke="#ff6600" stroke-width="1" stroke-dasharray="2 8" class="animated">
      <animate attributeName="stroke-dashoffset" from="0" to="10" dur="1.2s" repeatCount="indefinite"/>
    </circle>
    <g class="animated">
      <circle cx="-15" cy="10" r="1.5" fill="#ff6600">
        <animate attributeName="opacity" values="0.12;0.3;0.12" dur="2.5s" repeatCount="indefinite"/>
      </circle>
      <circle cx="15" cy="-10" r="1.5" fill="#ff6600">
        <animate attributeName="opacity" values="0.12;0.3;0.12" dur="2.5s" repeatCount="indefinite" begin="0.8s"/>
      </circle>
    </g>
  </g>
  
  <!-- Enhanced right side tactical elements -->
  <g transform="translate(1300, 150)" opacity="0.2">
    <!-- Tactical sensor array -->
    <circle cx="0" cy="0" r="70" fill="none" stroke="#ffa500" stroke-width="1.5" stroke-dasharray="3 12" class="animated">
      <animate attributeName="stroke-dashoffset" from="0" to="15" dur="0.4s" repeatCount="indefinite"/>
    </circle>
    <circle cx="0" cy="0" r="50" fill="none" stroke="#ff8800" stroke-width="1" stroke-dasharray="2 15" class="animated">
      <animate attributeName="stroke-dashoffset" from="0" to="-17" dur="0.5s" repeatCount="indefinite"/>
    </circle>
    <circle cx="0" cy="0" r="30" fill="none" stroke="#ff6600" stroke-width="0.8" stroke-dasharray="1 18" class="animated">
      <animate attributeName="stroke-dashoffset" from="0" to="19" dur="0.6s" repeatCount="indefinite"/>
    </circle>
    
    <!-- Enhanced tactical indicators -->
    <g class="animated">
      <circle cx="-35" cy="-25" r="2" fill="#ffa500">
        <animate attributeName="opacity" values="0.2;0.6;0.2" dur="2.2s" repeatCount="indefinite"/>
      </circle>
      <circle cx="35" cy="-25" r="2" fill="#ffa500">
        <animate attributeName="opacity" values="0.2;0.6;0.2" dur="2.5s" repeatCount="indefinite" begin="0.2s"/>
      </circle>
      <circle cx="-30" cy="25" r="2" fill="#ffa500">
        <animate attributeName="opacity" values="0.2;0.6;0.2" dur="2.3s" repeatCount="indefinite" begin="0.4s"/>
      </circle>
      <circle cx="30" cy="25" r="2" fill="#ffa500">
        <animate attributeName="opacity" values="0.2;0.6;0.2" dur="2.4s" repeatCount="indefinite" begin="0.6s"/>
      </circle>
      
      <!-- Additional tactical connection lines -->
      <line x1="0" y1="0" x2="-35" y2="-25" stroke="#ff8800" stroke-width="0.6" opacity="0.4"/>
      <line x1="0" y1="0" x2="35" y2="-25" stroke="#ff8800" stroke-width="0.6" opacity="0.4"/>
      <line x1="0" y1="0" x2="-30" y2="25" stroke="#ff8800" stroke-width="0.6" opacity="0.4"/>
      <line x1="0" y1="0" x2="30" y2="25" stroke="#ff8800" stroke-width="0.6" opacity="0.4"/>
    </g>
  </g>
  
  <!-- Additional tactical elements for visual balance -->
  <g transform="translate(100, 150)" opacity="0.1">
    <!-- Left side tactical elements -->
    <circle cx="0" cy="0" r="50" fill="none" stroke="#ff6600" stroke-width="1" stroke-dasharray="2 10" class="animated">
      <animate attributeName="stroke-dashoffset" from="0" to="12" dur="0.8s" repeatCount="indefinite"/>
    </circle>
    
    <g class="animated">
      <circle cx="-20" cy="-15" r="1.5" fill="#ff6600">
        <animate attributeName="opacity" values="0.1;0.3;0.1" dur="3s" repeatCount="indefinite"/>
      </circle>
      <circle cx="20" cy="-15" r="1.5" fill="#ff6600">
        <animate attributeName="opacity" values="0.1;0.3;0.1" dur="3.2s" repeatCount="indefinite" begin="0.5s"/>
      </circle>
      <circle cx="-15" cy="15" r="1.5" fill="#ff6600">
        <animate attributeName="opacity" values="0.1;0.3;0.1" dur="2.8s" repeatCount="indefinite" begin="1s"/>
      </circle>
      <circle cx="15" cy="15" r="1.5" fill="#ff6600">
        <animate attributeName="opacity" values="0.1;0.3;0.1" dur="3.1s" repeatCount="indefinite" begin="1.5s"/>
      </circle>
    </g>
  </g>
</svg>
